NotoSansMono-CondensedLight.ufo
<glyph name="Lslash" format="2">
  <advance width="500"/>
  <unicode hex="0141"/>
  <anchor x="307" y="0" name="bottom"/>
  <anchor x="155" y="714" name="top"/>
  <anchor x="300" y="357" name="center"/>
  <anchor x="413" y="714" name="topright"/>
  <outline>
    <contour>
      <point x="69" y="279" type="line"/>
      <point x="337" y="448" type="line"/>
      <point x="323" y="469" type="line"/>
      <point x="56" y="299" type="line"/>
    </contour>
    <component base="L" xOffset="50"/>
  </outline>
</glyph>
<glyph name="lslash" format="2">
  <advance width="500"/>
  <unicode hex="0142"/>
  <anchor x="250" y="0" name="bottom"/>
  <anchor x="250" y="760" name="top"/>
  <anchor x="255" y="376" name="center"/>
  <anchor x="396" y="760" name="topright"/>
  <outline>
    <contour>
      <point x="152" y="295" type="line"/>
      <point x="376" y="446" type="line"/>
      <point x="362" y="466" type="line"/>
      <point x="139" y="316" type="line"/>
    </contour>
    <component base="l"/>
  </outline>
</glyph>
<glyph name="Tbar" format="2">
  <advance width="500"/>
  <unicode hex="0166"/>
  <anchor x="250" y="0" name="bottom"/>
  <anchor x="250" y="714" name="top"/>
  <anchor x="250" y="357" name="center"/>
  <anchor x="480" y="714" name="topright"/>
  <outline>
    <contour>
      <point x="81" y="359" type="line"/>
      <point x="421" y="359" type="line"/>
      <point x="421" y="384" type="line"/>
      <point x="81" y="384" type="line"/>
    </contour>
    <component base="T"/>
  </outline>
</glyph>
<glyph name="uni0180" format="2">
  <advance width="500"/>
  <unicode hex="0180"/>
  <anchor x="250" y="0" name="bottom"/>
  <anchor x="213" y="760" name="top"/>
  <anchor x="480" y="760" name="topright"/>
  <outline>
    <contour>
      <point x="3" y="630" type="line"/>
      <point x="251" y="630" type="line"/>
      <point x="251" y="655" type="line"/>
      <point x="3" y="655" type="line"/>
    </contour>
    <component base="b"/>
  </outline>
</glyph>
<glyph name="uni018C" format="2">
  <advance width="500"/>
  <unicode hex="018C"/>
  <anchor x="250" y="0" name="bottom"/>
  <anchor x="256" y="760" name="top"/>
  <anchor x="250" y="264" name="center"/>
  <anchor x="480" y="760" name="topright"/>
  <outline>
    <contour>
      <point x="106" y="735" type="line"/>
      <point x="400" y="735" type="line"/>
      <point x="400" y="760" type="line"/>
      <point x="106" y="760" type="line"/>
    </contour>
    <component base="d"/>
  </outline>
</glyph>
<glyph name="uni0191" format="2">
  <advance width="500"/>
  <unicode hex="0191"/>
  <anchor x="122" y="0" name="bottom"/>
  <anchor x="357" y="714" name="top"/>
  <anchor x="499" y="714" name="topright"/>
  <outline>
    <contour>
      <point x="122" y="-15" type="curve" smooth="yes"/>
      <point x="207" y="-15"/>
      <point x="251" y="47"/>
      <point x="251" y="143" type="curve" smooth="yes"/>
      <point x="251" y="363" type="line"/>
      <point x="459" y="363" type="line"/>
      <point x="459" y="388" type="line"/>
      <point x="251" y="388" type="line"/>
      <point x="251" y="689" type="line"/>
      <point x="475" y="689" type="line"/>
      <point x="475" y="714" type="line"/>
      <point x="225" y="714" type="line"/>
      <point x="225" y="144" type="line" smooth="yes"/>
      <point x="225" y="56"/>
      <point x="187" y="10"/>
      <point x="121" y="10" type="curve" smooth="yes"/>
      <point x="64" y="10"/>
      <point x="21" y="52"/>
      <point x="21" y="120" type="curve" smooth="yes"/>
      <point x="21" y="145"/>
      <point x="26" y="166"/>
      <point x="29" y="176" type="curve"/>
      <point x="4" y="181" type="line"/>
      <point x="-2" y="164"/>
      <point x="-6" y="143"/>
      <point x="-6" y="119" type="curve" smooth="yes"/>
      <point x="-6" y="35"/>
      <point x="50" y="-15"/>
    </contour>
  </outline>
</glyph>
<glyph name="florin" format="2">
  <advance width="500"/>
  <unicode hex="0192"/>
  <anchor x="153" y="0" name="bottom"/>
  <anchor x="364" y="763" name="top"/>
  <anchor x="499" y="765" name="topright"/>
  <outline>
    <contour>
      <point x="153" y="-15" type="curve" smooth="yes"/>
      <point x="236" y="-15"/>
      <point x="273" y="48"/>
      <point x="273" y="135" type="curve" smooth="yes"/>
      <point x="273" y="503" type="line"/>
      <point x="441" y="503" type="line"/>
      <point x="441" y="528" type="line"/>
      <point x="273" y="528" type="line"/>
      <point x="273" y="601" type="line" smooth="yes"/>
      <point x="273" y="701"/>
      <point x="306" y="741"/>
      <point x="397" y="741" type="curve" smooth="yes"/>
      <point x="418" y="741"/>
      <point x="441" y="737"/>
      <point x="461" y="729" type="curve"/>
      <point x="468" y="753" type="line"/>
      <point x="448" y="760"/>
      <point x="426" y="765"/>
      <point x="398" y="765" type="curve" smooth="yes"/>
      <point x="288" y="765"/>
      <point x="247" y="711"/>
      <point x="247" y="604" type="curve" smooth="yes"/>
      <point x="247" y="528" type="line"/>
      <point x="101" y="524" type="line"/>
      <point x="101" y="503" type="line"/>
      <point x="247" y="503" type="line"/>
      <point x="247" y="134" type="line" smooth="yes"/>
      <point x="247" y="58"/>
      <point x="216" y="10"/>
      <point x="152" y="10" type="curve" smooth="yes"/>
      <point x="90" y="10"/>
      <point x="54" y="54"/>
      <point x="54" y="114" type="curve" smooth="yes"/>
      <point x="54" y="131"/>
      <point x="56" y="145"/>
      <point x="58" y="152" type="curve"/>
      <point x="32" y="157" type="line"/>
      <point x="29" y="144"/>
      <point x="27" y="130"/>
      <point x="27" y="113" type="curve" smooth="yes"/>
      <point x="27" y="38"/>
      <point x="77" y="-15"/>
    </contour>
  </outline>
</glyph>
<glyph name="uni0197" format="2">
  <advance width="500"/>
  <unicode hex="0197"/>
  <anchor x="250" y="0" name="bottom"/>
  <anchor x="250" y="714" name="top"/>
  <anchor x="285" y="10" name="ogonek"/>
  <anchor x="20" y="714" name="topleft"/>
  <anchor x="480" y="714" name="topright"/>
  <outline>
    <contour>
      <point x="131" y="363" type="line"/>
      <point x="369" y="363" type="line"/>
      <point x="369" y="388" type="line"/>
      <point x="131" y="388" type="line"/>
    </contour>
    <component base="I"/>
  </outline>
</glyph>
<glyph name="uni019A" format="2">
  <advance width="500"/>
  <unicode hex="019A"/>
  <anchor x="250" y="0" name="bottom"/>
  <anchor x="250" y="760" name="top"/>
  <anchor x="255" y="376" name="center"/>
  <anchor x="396" y="760" name="topright"/>
  <outline>
    <contour>
      <point x="104" y="369" type="line"/>
      <point x="405" y="369" type="line"/>
      <point x="405" y="394" type="line"/>
      <point x="104" y="394" type="line"/>
    </contour>
    <component base="l"/>
  </outline>
</glyph>
<glyph name="uni019B" format="2">
  <advance width="500"/>
  <unicode hex="019B"/>
  <anchor x="260" y="0" name="bottom"/>
  <anchor x="266" y="766" name="top"/>
  <outline>
    <contour>
      <point x="137" y="561" type="line"/>
      <point x="350" y="635" type="line"/>
      <point x="342" y="659" type="line"/>
      <point x="129" y="585" type="line"/>
    </contour>
    <component base="lambda" xOffset="-33"/>
  </outline>
</glyph>
<glyph name="uni023D" format="2">
  <advance width="500"/>
  <unicode hex="023D"/>
  <anchor x="250" y="0" name="bottom"/>
  <anchor x="105" y="714" name="top"/>
  <anchor x="250" y="357" name="center"/>
  <anchor x="363" y="714" name="topright"/>
  <outline>
    <contour>
      <point x="0" y="363" type="line"/>
      <point x="230" y="363" type="line"/>
      <point x="230" y="388" type="line"/>
      <point x="0" y="388" type="line"/>
    </contour>
    <component base="L"/>
  </outline>
</glyph>
<glyph name="uni0243" format="2">
  <advance width="500"/>
  <unicode hex="0243"/>
  <anchor x="250" y="0" name="bottom"/>
  <anchor x="250" y="714" name="top"/>
  <anchor x="480" y="714" name="topright"/>
  <outline>
    <contour>
      <point x="0" y="181" type="line"/>
      <point x="255" y="181" type="line"/>
      <point x="255" y="206" type="line"/>
      <point x="0" y="206" type="line"/>
    </contour>
    <component base="B"/>
  </outline>
</glyph>
<glyph name="uni0249" format="2">
  <advance width="500"/>
  <unicode hex="0249"/>
  <anchor x="250" y="-248" name="bottom"/>
  <anchor x="290" y="724" name="top"/>
  <anchor x="420" y="724" name="topright"/>
  <outline>
    <contour>
      <point x="141" y="239" type="line"/>
      <point x="445" y="239" type="line"/>
      <point x="445" y="264" type="line"/>
      <point x="141" y="264" type="line"/>
    </contour>
    <component base="j"/>
  </outline>
</glyph>
<glyph name="uni02FD" format="2">
  <advance width="500"/>
  <unicode hex="02FD"/>
  <outline>
    <contour>
      <point x="137" y="-187" type="line"/>
      <point x="362" y="-187" type="line"/>
      <point x="362" y="-48" type="line"/>
      <point x="336" y="-48" type="line"/>
      <point x="336" y="-162" type="line"/>
      <point x="163" y="-162" type="line"/>
      <point x="163" y="-48" type="line"/>
      <point x="137" y="-48" type="line"/>
    </contour>
  </outline>
</glyph>
<glyph name="Archaicsampi" format="2">
  <advance width="500"/>
  <unicode hex="0372"/>
  <anchor x="250" y="0" name="bottom"/>
  <anchor x="250" y="714" name="top"/>
  <anchor x="250" y="357" name="center"/>
  <anchor x="480" y="714" name="topright"/>
  <outline>
    <contour>
      <point x="429" y="496" type="line"/>
      <point x="455" y="496" type="line"/>
      <point x="455" y="714" type="line"/>
      <point x="429" y="714" type="line"/>
    </contour>
    <contour>
      <point x="45" y="496" type="line"/>
      <point x="71" y="496" type="line"/>
      <point x="71" y="714" type="line"/>
      <point x="45" y="714" type="line"/>
    </contour>
    <component base="T"/>
  </outline>
</glyph>
<glyph name="Theta" format="2">
  <advance width="500"/>
  <unicode hex="0398"/>
  <anchor x="250" y="0" name="bottom"/>
  <anchor x="250" y="714" name="top"/>
  <anchor x="250" y="357" name="center"/>
  <anchor x="251" y="10" name="ogonek"/>
  <anchor x="20" y="714" name="topleft"/>
  <anchor x="500" y="714" name="topright"/>
  <outline>
    <contour>
      <point x="131" y="348" type="line"/>
      <point x="370" y="348" type="line"/>
      <point x="370" y="373" type="line"/>
      <point x="131" y="373" type="line"/>
    </contour>
    <component base="O"/>
  </outline>
</glyph>
<glyph name="uni03D9" format="2">
  <advance width="500"/>
  <unicode hex="03D9"/>
  <anchor x="250" y="-240" name="bottom"/>
  <anchor x="250" y="528" name="top"/>
  <anchor x="250" y="264" name="center"/>
  <anchor x="251" y="15" name="ogonek"/>
  <anchor x="480" y="528" name="topright"/>
  <outline>
    <contour>
      <point x="237" y="-240" type="line"/>
      <point x="263" y="-240" type="line"/>
      <point x="263" y="-10" type="line"/>
      <point x="237" y="-9" type="line"/>
    </contour>
    <component base="o"/>
  </outline>
</glyph>
<glyph name="uni03FC" format="2">
  <advance width="500"/>
  <unicode hex="03FC"/>
  <anchor x="250" y="-240" name="bottom"/>
  <anchor x="250" y="528" name="top"/>
  <outline>
    <contour>
      <point x="5" y="-127" type="line"/>
      <point x="216" y="-127" type="line"/>
      <point x="216" y="-102" type="line"/>
      <point x="5" y="-102" type="line"/>
    </contour>
    <component base="rho"/>
  </outline>
</glyph>
<glyph name="afii10091" format="2">
  <advance width="500"/>
  <unicode hex="0449"/>
  <anchor x="250" y="-141" name="bottom"/>
  <anchor x="250" y="528" name="top"/>
  <outline>
    <contour>
      <point x="474" y="-175" type="line"/>
      <point x="500" y="-175" type="line"/>
      <point x="500" y="25" type="line"/>
      <point x="415" y="25" type="line"/>
      <point x="415" y="0" type="line"/>
      <point x="474" y="0" type="line"/>
    </contour>
    <component base="afii10090"/>
  </outline>
</glyph>
<glyph name="afii10099" format="2">
  <advance width="500"/>
  <unicode hex="0452"/>
  <anchor x="250" y="-241" name="bottom"/>
  <anchor x="250" y="760" name="top"/>
  <anchor x="250" y="264" name="center"/>
  <outline>
    <contour>
      <point x="333" y="-241" type="curve" smooth="yes"/>
      <point x="383" y="-241"/>
      <point x="420" y="-209"/>
      <point x="420" y="-133" type="curve" smooth="yes"/>
      <point x="420" y="276" type="line" smooth="yes"/>
      <point x="394" y="273" type="line"/>
      <point x="394" y="-129" type="line" smooth="yes"/>
      <point x="394" y="-186"/>
      <point x="375" y="-216"/>
      <point x="332" y="-216" type="curve" smooth="yes"/>
      <point x="317" y="-216"/>
      <point x="302" y="-214"/>
      <point x="286" y="-207" type="curve"/>
      <point x="286" y="-233" type="line"/>
      <point x="298" y="-238"/>
      <point x="313" y="-241"/>
    </contour>
    <component base="afii10108"/>
  </outline>
</glyph>
<glyph name="uni048B" format="2">
  <advance width="500"/>
  <unicode hex="048B"/>
  <anchor x="250" y="-173" name="bottom"/>
  <anchor x="250" y="716" name="top"/>
  <anchor x="480" y="0" name="bottomright"/>
  <outline>
    <contour>
      <point x="417" y="-173" type="line"/>
      <point x="444" y="-173" type="line"/>
      <point x="500" y="25" type="line"/>
      <point x="411" y="25" type="line"/>
      <point x="408" y="0" type="line"/>
      <point x="467" y="0" type="line"/>
    </contour>
    <component base="afii10074"/>
    <component base="breve"/>
  </outline>
</glyph>
<glyph name="uni048F" format="2">
  <advance width="500"/>
  <unicode hex="048F"/>
  <anchor x="250" y="-240" name="bottom"/>
  <anchor x="250" y="528" name="top"/>
  <anchor x="480" y="528" name="topright"/>
  <outline>
    <contour>
      <point x="370" y="-79" type="line"/>
      <point x="392" y="-66" type="line"/>
      <point x="291" y="137" type="line"/>
      <point x="268" y="125" type="line"/>
    </contour>
    <component base="p"/>
  </outline>
</glyph>
<glyph name="afii10050" format="2">
  <advance width="500"/>
  <unicode hex="0490"/>
  <anchor x="250" y="0" name="bottom"/>
  <anchor x="250" y="861" name="top"/>
  <outline>
    <contour>
      <point x="379" y="689" type="line"/>
      <point x="405" y="689" type="line"/>
      <point x="405" y="861" type="line"/>
      <point x="379" y="861" type="line"/>
    </contour>
    <component base="Gamma"/>
  </outline>
</glyph>
<glyph name="uni04B2" format="2">
  <advance width="500"/>
  <unicode hex="04B2"/>
  <anchor x="250" y="-173" name="bottom"/>
  <anchor x="250" y="714" name="top"/>
  <anchor x="480" y="714" name="topright"/>
  <outline>
    <contour>
      <point x="442" y="-173" type="line"/>
      <point x="467" y="-173" type="line"/>
      <point x="467" y="25" type="line"/>
      <point x="432" y="25" type="line"/>
      <point x="439" y="0" type="line"/>
      <point x="442" y="0" type="line"/>
    </contour>
    <component base="X"/>
  </outline>
</glyph>
<glyph name="uni04B3" format="2">
  <advance width="500"/>
  <unicode hex="04B3"/>
  <anchor x="250" y="-175" name="bottom"/>
  <anchor x="250" y="528" name="top"/>
  <anchor x="480" y="528" name="topright"/>
  <outline>
    <contour>
      <point x="428" y="-175" type="line" smooth="yes"/>
      <point x="454" y="-175" type="line" smooth="yes"/>
      <point x="454" y="25" type="line" smooth="yes"/>
      <point x="403" y="25" type="line" smooth="yes"/>
      <point x="416" y="0" type="line" smooth="yes"/>
      <point x="428" y="0" type="line" smooth="yes"/>
    </contour>
    <component base="x"/>
  </outline>
</glyph>
<glyph name="uni04B8" format="2">
  <advance width="500"/>
  <unicode hex="04B8"/>
  <anchor x="250" y="0" name="bottom"/>
  <anchor x="250" y="714" name="top"/>
  <anchor x="480" y="0" name="bottomright"/>
  <outline>
    <contour>
      <point x="237" y="107" type="line"/>
      <point x="263" y="107" type="line"/>
      <point x="263" y="478" type="line"/>
      <point x="237" y="478" type="line"/>
    </contour>
    <component base="afii10041"/>
  </outline>
</glyph>
<glyph name="uni04C5" format="2">
  <advance width="500"/>
  <unicode hex="04C5"/>
  <anchor x="280" y="-240" name="bottom"/>
  <anchor x="250" y="714" name="top"/>
  <outline>
    <contour>
      <point x="393" y="-173" type="line"/>
      <point x="420" y="-173" type="line"/>
      <point x="477" y="25" type="line"/>
      <point x="427" y="25" type="line"/>
      <point x="421" y="0" type="line"/>
      <point x="443" y="0" type="line"/>
    </contour>
    <component base="afii10029"/>
  </outline>
</glyph>
<glyph name="uni04C6" format="2">
  <advance width="500"/>
  <unicode hex="04C6"/>
  <anchor x="250" y="-171" name="bottom"/>
  <anchor x="250" y="528" name="top"/>
  <outline>
    <contour>
      <point x="382" y="-173" type="line"/>
      <point x="409" y="-173" type="line"/>
      <point x="465" y="25" type="line"/>
      <point x="406" y="25" type="line"/>
      <point x="403" y="0" type="line"/>
      <point x="432" y="0" type="line"/>
    </contour>
    <component base="afii10077"/>
  </outline>
</glyph>
<glyph name="uni04CD" format="2">
  <advance width="500"/>
  <unicode hex="04CD"/>
  <anchor x="250" y="-174" name="bottom"/>
  <anchor x="250" y="714" name="top"/>
  <anchor x="500" y="714" name="topright"/>
  <outline>
    <contour>
      <point x="416" y="-173" type="line"/>
      <point x="443" y="-173" type="line"/>
      <point x="500" y="25" type="line"/>
      <point x="450" y="25" type="line"/>
      <point x="444" y="0" type="line"/>
      <point x="466" y="0" type="line"/>
    </contour>
    <component base="M"/>
  </outline>
</glyph>
<glyph name="uni04CE" format="2">
  <advance width="500"/>
  <unicode hex="04CE"/>
  <anchor x="250" y="-240" name="bottom"/>
  <anchor x="250" y="528" name="top"/>
  <outline>
    <contour>
      <point x="417" y="-173" type="line"/>
      <point x="444" y="-173" type="line"/>
      <point x="500" y="25" type="line"/>
      <point x="441" y="25" type="line"/>
      <point x="438" y="0" type="line"/>
      <point x="467" y="0" type="line"/>
    </contour>
    <component base="afii10078"/>
  </outline>
</glyph>
<glyph name="uni04F7" format="2">
  <advance width="500"/>
  <unicode hex="04F7"/>
  <anchor x="226" y="-240" name="bottom"/>
  <anchor x="308" y="528" name="top"/>
  <anchor x="480" y="0" name="bottomright"/>
  <outline>
    <contour>
      <point x="211" y="-173" type="line"/>
      <point x="237" y="-173" type="line"/>
      <point x="237" y="25" type="line"/>
      <point x="182" y="25" type="line"/>
      <point x="180" y="0" type="line"/>
      <point x="211" y="0" type="line"/>
    </contour>
    <component base="afii10068"/>
  </outline>
</glyph>
<glyph name="uni051F" format="2">
  <advance width="500"/>
  <unicode hex="051F"/>
  <anchor x="250" y="0" name="bottom"/>
  <anchor x="250" y="528" name="top"/>
  <anchor x="480" y="0" name="bottomright"/>
  <outline>
    <contour>
      <point x="412" y="312" type="line"/>
      <point x="428" y="328" type="line"/>
      <point x="235" y="528" type="line"/>
      <point x="217" y="512" type="line"/>
    </contour>
    <component base="afii10076"/>
  </outline>
</glyph>
<glyph name="uni052A" format="2">
  <advance width="1000"/>
  <unicode hex="052A"/>
  <anchor x="500" y="-175" name="bottom"/>
  <anchor x="500" y="714" name="top"/>
  <anchor x="1044" y="0" name="bottomright"/>
  <outline>
    <contour>
      <point x="401" y="351" type="line"/>
      <point x="641" y="351" type="line"/>
      <point x="641" y="376" type="line"/>
      <point x="401" y="376" type="line"/>
    </contour>
    <component base="afii10021"/>
    <component base="afii10028" xOffset="564"/>
  </outline>
</glyph>
<glyph name="uni052B" format="2">
  <advance width="1000"/>
  <unicode hex="052B"/>
  <anchor x="500" y="-175" name="bottom"/>
  <anchor x="500" y="528" name="top"/>
  <anchor x="980" y="0" name="bottomright"/>
  <outline>
    <contour>
      <point x="367" y="271" type="line"/>
      <point x="636" y="271" type="line"/>
      <point x="636" y="296" type="line"/>
      <point x="367" y="296" type="line"/>
    </contour>
    <component base="afii10069"/>
    <component base="afii10076" xOffset="500"/>
  </outline>
</glyph>
<glyph name="uni052E" format="2">
  <advance width="500"/>
  <unicode hex="052E"/>
  <anchor x="259" y="-173" name="bottom"/>
  <anchor x="328" y="714" name="top"/>
  <outline>
    <contour>
      <point x="453" y="-173" type="line"/>
      <point x="479" y="-173" type="line"/>
      <point x="479" y="25" type="line"/>
      <point x="429" y="25" type="line"/>
      <point x="419" y="0" type="line"/>
      <point x="453" y="0" type="line"/>
    </contour>
    <component base="afii10029"/>
  </outline>
</glyph>
<glyph name="uni052F" format="2">
  <advance width="500"/>
  <unicode hex="052F"/>
  <anchor x="299" y="-175" name="bottom"/>
  <anchor x="312" y="528" name="top"/>
  <outline>
    <contour>
      <point x="437" y="-175" type="line"/>
      <point x="463" y="-175" type="line"/>
      <point x="463" y="25" type="line"/>
      <point x="408" y="25" type="line"/>
      <point x="408" y="0" type="line"/>
      <point x="437" y="0" type="line"/>
    </contour>
    <component base="afii10077"/>
  </outline>
</glyph>
<glyph name="uni1ABA" format="2">
  <unicode hex="1ABA"/>
  <anchor x="0" y="0" name="_bottom"/>
  <anchor x="0" y="-218" name="bottom"/>
  <outline>
    <contour>
      <point x="-25" y="-183" type="line"/>
      <point x="63" y="40" type="line"/>
      <point x="36" y="40" type="line"/>
      <point x="-52" y="-183" type="line"/>
    </contour>
    <contour>
      <point x="-39" y="-218" type="curve" smooth="yes"/>
      <point x="-21" y="-218"/>
      <point x="-13" y="-204"/>
      <point x="-13" y="-182" type="curve" smooth="yes"/>
      <point x="-13" y="-159"/>
      <point x="-20" y="-147"/>
      <point x="-39" y="-147" type="curve" smooth="yes"/>
      <point x="-59" y="-147"/>
      <point x="-64" y="-163"/>
      <point x="-64" y="-182" type="curve" smooth="yes"/>
      <point x="-64" y="-203"/>
      <point x="-59" y="-218"/>
    </contour>
  </outline>
</glyph>
<glyph name="uni1D06" format="2">
  <advance width="500"/>
  <unicode hex="1D06"/>
  <anchor x="250" y="0" name="bottom"/>
  <anchor x="250" y="528" name="top"/>
  <outline>
    <contour>
      <point x="0" y="268" type="line"/>
      <point x="257" y="268" type="line"/>
      <point x="257" y="293" type="line"/>
      <point x="0" y="293" type="line"/>
    </contour>
    <component base="uni1D05"/>
  </outline>
</glyph>
<glyph name="uni1D0C" format="2">
  <advance width="500"/>
  <unicode hex="1D0C"/>
  <anchor x="304" y="0" name="bottom"/>
  <anchor x="166" y="528" name="top"/>
  <outline>
    <contour>
      <point x="82" y="209" type="line"/>
      <point x="275" y="350" type="line"/>
      <point x="260" y="371" type="line"/>
      <point x="67" y="231" type="line"/>
    </contour>
    <component base="uni029F"/>
  </outline>
</glyph>
<glyph name="uni1D24" format="2">
  <advance width="550"/>
  <unicode hex="1D24"/>
  <anchor x="303" y="0" name="bottom"/>
  <anchor x="287" y="760" name="top"/>
  <outline>
    <contour>
      <point x="289" y="-13" type="curve" smooth="yes"/>
      <point x="359" y="-13"/>
      <point x="405" y="6"/>
      <point x="446" y="29" type="curve"/>
      <point x="437" y="52" type="line"/>
      <point x="401" y="33"/>
      <point x="354" y="12"/>
      <point x="289" y="12" type="curve" smooth="yes"/>
      <point x="194" y="12"/>
      <point x="135" y="60"/>
      <point x="135" y="149" type="curve" smooth="yes"/>
      <point x="135" y="267"/>
      <point x="213" y="308"/>
      <point x="303" y="341" type="curve"/>
      <point x="303" y="393" type="line"/>
      <point x="385" y="425"/>
      <point x="472" y="471"/>
      <point x="472" y="603" type="curve" smooth="yes"/>
      <point x="472" y="703"/>
      <point x="404" y="763"/>
      <point x="291" y="763" type="curve" smooth="yes"/>
      <point x="222" y="763"/>
      <point x="174" y="744"/>
      <point x="133" y="721" type="curve"/>
      <point x="143" y="698" type="line"/>
      <point x="178" y="717"/>
      <point x="226" y="738"/>
      <point x="290" y="738" type="curve" smooth="yes"/>
      <point x="385" y="738"/>
      <point x="444" y="690"/>
      <point x="444" y="601" type="curve" smooth="yes"/>
      <point x="444" y="483"/>
      <point x="366" y="442"/>
      <point x="276" y="409" type="curve"/>
      <point x="276" y="357" type="line"/>
      <point x="194" y="325"/>
      <point x="107" y="279"/>
      <point x="107" y="147" type="curve" smooth="yes"/>
      <point x="107" y="47"/>
      <point x="175" y="-13"/>
    </contour>
  </outline>
</glyph>
<glyph name="uni1D6E" format="2">
  <advance width="500"/>
  <unicode hex="1D6E"/>
  <anchor x="260" y="0" name="bottom"/>
  <anchor x="354" y="763" name="top"/>
  <anchor x="520" y="765" name="topright"/>
  <outline>
    <contour>
      <point x="98" y="234" type="curve"/>
      <point x="122" y="234" type="line"/>
      <point x="126" y="288"/>
      <point x="151" y="305"/>
      <point x="176" y="305" type="curve" smooth="yes"/>
      <point x="226" y="305"/>
      <point x="248" y="235"/>
      <point x="310" y="235" type="curve" smooth="yes"/>
      <point x="353" y="235"/>
      <point x="387" y="266"/>
      <point x="390" y="329" type="curve"/>
      <point x="367" y="329" type="line"/>
      <point x="362" y="278"/>
      <point x="338" y="259"/>
      <point x="310" y="259" type="curve" smooth="yes"/>
      <point x="261" y="259"/>
      <point x="237" y="329"/>
      <point x="177" y="329" type="curve" smooth="yes"/>
      <point x="134" y="329"/>
      <point x="103" y="299"/>
    </contour>
    <component base="f" xOffset="10"/>
  </outline>
</glyph>
<glyph name="uni1D80" format="2">
  <advance width="500"/>
  <unicode hex="1D80"/>
  <anchor x="250" y="0" name="bottom"/>
  <anchor x="250" y="760" name="top"/>
  <anchor x="480" y="760" name="topright"/>
  <outline>
    <contour>
      <point x="291" y="-165" type="curve" smooth="yes"/>
      <point x="337" y="-165"/>
      <point x="363" y="-137"/>
      <point x="363" y="-78" type="curve" smooth="yes"/>
      <point x="363" y="45" type="line"/>
      <point x="339" y="20" type="line"/>
      <point x="339" y="-80" type="line" smooth="yes"/>
      <point x="339" y="-123"/>
      <point x="321" y="-141"/>
      <point x="290" y="-141" type="curve" smooth="yes"/>
      <point x="275" y="-141"/>
      <point x="262" y="-138"/>
      <point x="250" y="-132" type="curve"/>
      <point x="250" y="-156" type="line"/>
      <point x="260" y="-161"/>
      <point x="273" y="-165"/>
    </contour>
    <component base="b"/>
  </outline>
</glyph>
<glyph name="uni1D8C" format="2">
  <advance width="500"/>
  <unicode hex="1D8C"/>
  <anchor x="250" y="0" name="bottom"/>
  <anchor x="250" y="528" name="top"/>
  <anchor x="480" y="528" name="topright"/>
  <outline>
    <contour>
      <point x="246" y="0" type="line"/>
      <point x="336" y="0" type="line"/>
      <point x="336" y="25" type="line"/>
      <point x="246" y="25" type="line"/>
    </contour>
    <component base="v"/>
    <component base="cyrillicbighooklc" xOffset="56"/>
  </outline>
</glyph>
<glyph name="uni1D90" format="2">
  <advance width="500"/>
  <unicode hex="1D90"/>
  <anchor x="250" y="0" name="bottom"/>
  <anchor x="250" y="528" name="top"/>
  <outline>
    <contour>
      <point x="537" y="-161" type="curve" smooth="yes"/>
      <point x="548" y="-161"/>
      <point x="558" y="-159"/>
      <point x="572" y="-155" type="curve"/>
      <point x="572" y="-129" type="line"/>
      <point x="558" y="-134"/>
      <point x="549" y="-136"/>
      <point x="538" y="-136" type="curve" smooth="yes"/>
      <point x="513" y="-136"/>
      <point x="500" y="-123"/>
      <point x="500" y="-72" type="curve" smooth="yes"/>
      <point x="500" y="22" type="line"/>
      <point x="476" y="0" type="line"/>
      <point x="476" y="-84" type="line" smooth="yes"/>
      <point x="476" y="-150"/>
      <point x="508" y="-161"/>
    </contour>
    <component base="uni0251"/>
  </outline>
</glyph>
<glyph name="uni1D91" format="2">
  <advance width="500"/>
  <unicode hex="1D91"/>
  <anchor x="250" y="0" name="bottom"/>
  <anchor x="250" y="765" name="top"/>
  <outline>
    <contour>
      <point x="452" y="-161" type="curve" smooth="yes"/>
      <point x="463" y="-161"/>
      <point x="473" y="-159"/>
      <point x="487" y="-155" type="curve"/>
      <point x="487" y="-129" type="line"/>
      <point x="473" y="-134"/>
      <point x="464" y="-136"/>
      <point x="453" y="-136" type="curve" smooth="yes"/>
      <point x="428" y="-136"/>
      <point x="415" y="-123"/>
      <point x="415" y="-72" type="curve" smooth="yes"/>
      <point x="415" y="125" type="line"/>
      <point x="391" y="120" type="line"/>
      <point x="391" y="-84" type="line" smooth="yes"/>
      <point x="391" y="-150"/>
      <point x="423" y="-161"/>
    </contour>
    <component base="uni0257"/>
  </outline>
</glyph>
<glyph name="longsdiagonalstroke" format="2">
  <advance width="500"/>
  <unicode hex="1E9C"/>
  <anchor x="239" y="0" name="bottom"/>
  <anchor x="250" y="765" name="top"/>
  <outline>
    <contour>
      <point x="136" y="313" type="line"/>
      <point x="321" y="504" type="line"/>
      <point x="303" y="521" type="line"/>
      <point x="119" y="331" type="line"/>
    </contour>
    <component base="longs" xOffset="-5"/>
  </outline>
</glyph>
<glyph name="longshighstroke" format="2">
  <advance width="500"/>
  <unicode hex="1E9D"/>
  <anchor x="255" y="0" name="bottom"/>
  <anchor x="250" y="765" name="top"/>
  <outline>
    <contour>
      <point x="120" y="502" type="line"/>
      <point x="348" y="502" type="line"/>
      <point x="348" y="527" type="line"/>
      <point x="120" y="527" type="line"/>
    </contour>
    <component base="longs" xOffset="10"/>
  </outline>
</glyph>
<glyph name="uni1F18" format="2">
  <advance width="500"/>
  <unicode hex="1F18"/>
  <anchor x="260" y="0" name="bottom"/>
  <anchor x="254" y="714" name="top"/>
  <outline>
    <contour>
      <point x="135" y="0" type="line"/>
      <point x="405" y="0" type="line"/>
      <point x="405" y="25" type="line"/>
      <point x="161" y="25" type="line"/>
      <point x="161" y="364" type="line"/>
      <point x="388" y="364" type="line"/>
      <point x="388" y="389" type="line"/>
      <point x="161" y="389" type="line"/>
      <point x="161" y="689" type="line"/>
      <point x="405" y="689" type="line"/>
      <point x="405" y="714" type="line"/>
      <point x="135" y="714" type="line"/>
    </contour>
    <component base="uni1FBD" xOffset="-205"/>
  </outline>
</glyph>
<glyph name="uni1F39" format="2">
  <advance width="500"/>
  <unicode hex="1F39"/>
  <anchor x="290" y="0" name="bottom"/>
  <anchor x="290" y="714" name="top"/>
  <outline>
    <contour>
      <point x="160" y="0" type="line"/>
      <point x="420" y="0" type="line"/>
      <point x="420" y="20" type="line"/>
      <point x="303" y="23" type="line"/>
      <point x="303" y="690" type="line"/>
      <point x="420" y="694" type="line"/>
      <point x="420" y="714" type="line"/>
      <point x="160" y="714" type="line"/>
      <point x="160" y="694" type="line"/>
      <point x="277" y="690" type="line"/>
      <point x="277" y="23" type="line"/>
      <point x="160" y="20" type="line"/>
    </contour>
    <component base="uni1FFE" xOffset="-186" yOffset="-5"/>
  </outline>
</glyph>
<glyph name="uni1F3A" format="2">
  <advance width="500"/>
  <unicode hex="1F3A"/>
  <anchor x="327" y="0" name="bottom"/>
  <anchor x="327" y="714" name="top"/>
  <outline>
    <contour>
      <point x="195" y="0" type="line"/>
      <point x="455" y="0" type="line"/>
      <point x="455" y="20" type="line"/>
      <point x="338" y="23" type="line"/>
      <point x="338" y="690" type="line"/>
      <point x="455" y="694" type="line"/>
      <point x="455" y="714" type="line"/>
      <point x="195" y="714" type="line"/>
      <point x="195" y="694" type="line"/>
      <point x="312" y="690" type="line"/>
      <point x="312" y="23" type="line"/>
      <point x="195" y="20" type="line"/>
    </contour>
    <component base="uni1FCD" xOffset="-158"/>
  </outline>
</glyph>
<glyph name="uni1F3B" format="2">
  <advance width="500"/>
  <unicode hex="1F3B"/>
  <anchor x="325" y="0" name="bottom"/>
  <anchor x="325" y="714" name="top"/>
  <outline>
    <contour>
      <point x="195" y="0" type="line"/>
      <point x="455" y="0" type="line"/>
      <point x="455" y="20" type="line"/>
      <point x="338" y="23" type="line"/>
      <point x="338" y="690" type="line"/>
      <point x="455" y="694" type="line"/>
      <point x="455" y="714" type="line"/>
      <point x="195" y="714" type="line"/>
      <point x="195" y="694" type="line"/>
      <point x="312" y="690" type="line"/>
      <point x="312" y="23" type="line"/>
      <point x="195" y="20" type="line"/>
    </contour>
    <component base="uni1FDD" xOffset="-170"/>
  </outline>
</glyph>
<glyph name="uni1FC9" format="2">
  <advance width="500"/>
  <unicode hex="1FC9"/>
  <anchor x="250" y="0" name="bottom"/>
  <anchor x="250" y="714" name="top"/>
  <outline>
    <contour>
      <point x="135" y="0" type="line"/>
      <point x="405" y="0" type="line"/>
      <point x="405" y="25" type="line"/>
      <point x="161" y="25" type="line"/>
      <point x="161" y="364" type="line"/>
      <point x="388" y="364" type="line"/>
      <point x="388" y="389" type="line"/>
      <point x="161" y="389" type="line"/>
      <point x="161" y="689" type="line"/>
      <point x="405" y="689" type="line"/>
      <point x="405" y="714" type="line"/>
      <point x="135" y="714" type="line"/>
    </contour>
    <component base="uni1FFD" xOffset="-232" yOffset="-47"/>
  </outline>
</glyph>
<glyph name="uni1FFD" format="2">
  <advance width="500"/>
  <unicode hex="1FFD"/>
  <anchor x="250" y="528" name="_top"/>
  <anchor x="250" y="762" name="top"/>
  <outline>
    <contour>
      <point x="240" y="606" type="line"/>
      <point x="253" y="606" type="line"/>
      <point x="272" y="642"/>
      <point x="295" y="713"/>
      <point x="306" y="754" type="curve"/>
      <point x="306" y="762" type="line"/>
      <point x="271" y="762" type="line"/>
      <point x="264" y="717"/>
      <point x="251" y="653"/>
      <point x="240" y="614" type="curve"/>
    </contour>
  </outline>
</glyph>
<glyph name="tironiansignet" format="2">
  <advance width="500"/>
  <unicode hex="204A"/>
  <outline>
    <contour>
      <point x="397" y="0" type="line"/>
      <point x="423" y="0" type="line"/>
      <point x="423" y="527" type="line"/>
      <point x="32" y="527" type="line"/>
      <point x="32" y="502" type="line"/>
      <point x="397" y="502" type="line"/>
    </contour>
  </outline>
</glyph>
<glyph name="plussuperior" format="2">
  <advance width="500"/>
  <unicode hex="207A"/>
  <outline>
    <contour>
      <point x="237" y="334" type="line"/>
      <point x="263" y="334" type="line"/>
      <point x="263" y="444" type="line"/>
      <point x="368" y="444" type="line"/>
      <point x="368" y="469" type="line"/>
      <point x="263" y="469" type="line"/>
      <point x="263" y="584" type="line"/>
      <point x="237" y="584" type="line"/>
      <point x="237" y="469" type="line"/>
      <point x="131" y="469" type="line"/>
      <point x="131" y="444" type="line"/>
      <point x="237" y="444" type="line"/>
    </contour>
  </outline>
</glyph>
<glyph name="equalsuperior" format="2">
  <advance width="500"/>
  <unicode hex="207C"/>
  <outline>
    <contour>
      <point x="131" y="502" type="line"/>
      <point x="368" y="502" type="line"/>
      <point x="368" y="527" type="line"/>
      <point x="131" y="527" type="line"/>
    </contour>
    <contour>
      <point x="131" y="402" type="line"/>
      <point x="368" y="402" type="line"/>
      <point x="368" y="427" type="line"/>
      <point x="131" y="427" type="line"/>
    </contour>
  </outline>
</glyph>
<glyph name="parenrightsuperior" format="2">
  <advance width="500"/>
  <unicode hex="207E"/>
  <outline>
    <contour>
      <point x="188" y="237" type="curve"/>
      <point x="217" y="237" type="line"/>
      <point x="271" y="293"/>
      <point x="312" y="383"/>
      <point x="312" y="501" type="curve" smooth="yes"/>
      <point x="312" y="617"/>
      <point x="273" y="696"/>
      <point x="217" y="760" type="curve"/>
      <point x="188" y="760" type="line"/>
      <point x="255" y="693"/>
      <point x="286" y="599"/>
      <point x="286" y="501" type="curve" smooth="yes"/>
      <point x="286" y="405"/>
      <point x="257" y="307"/>
    </contour>
  </outline>
</glyph>
<glyph name="uni20A1" format="2">
  <advance width="500"/>
  <unicode hex="20A1"/>
  <anchor x="302" y="0" name="bottom"/>
  <anchor x="310" y="714" name="top"/>
  <anchor x="480" y="714" name="topright"/>
  <outline>
    <contour>
      <point x="277" y="-57" type="line"/>
      <point x="304" y="-57" type="line"/>
      <point x="430" y="760" type="line"/>
      <point x="404" y="760" type="line"/>
    </contour>
    <contour>
      <point x="151" y="-57" type="line"/>
      <point x="178" y="-57" type="line"/>
      <point x="304" y="760" type="line"/>
      <point x="278" y="760" type="line"/>
    </contour>
    <component base="C"/>
  </outline>
</glyph>
<glyph name="uni20A5" format="2">
  <advance width="500"/>
  <unicode hex="20A5"/>
  <anchor x="252" y="0" name="bottom"/>
  <anchor x="253" y="528" name="top"/>
  <anchor x="480" y="528" name="topright"/>
  <outline>
    <contour>
      <point x="124" y="-110" type="line"/>
      <point x="147" y="-110" type="line"/>
      <point x="385" y="666" type="line"/>
      <point x="362" y="666" type="line"/>
    </contour>
    <component base="m"/>
  </outline>
</glyph>
<glyph name="uni20A6" format="2">
  <advance width="500"/>
  <unicode hex="20A6"/>
  <anchor x="248.0" y="0" name="bottom"/>
  <anchor x="252.58" y="714" name="top"/>
  <anchor x="477.0" y="714" name="topright"/>
  <outline>
    <contour>
      <point x="5" y="424" type="line"/>
      <point x="495" y="424" type="line"/>
      <point x="495" y="448" type="line"/>
      <point x="5" y="448" type="line"/>
    </contour>
    <contour>
      <point x="5" y="288" type="line"/>
      <point x="495" y="288" type="line"/>
      <point x="495" y="312" type="line"/>
      <point x="5" y="312" type="line"/>
    </contour>
    <component base="N" xScale="0.916" xOffset="19"/>
  </outline>
</glyph>
<glyph name="uni20AE" format="2">
  <advance width="500"/>
  <unicode hex="20AE"/>
  <anchor x="250" y="0" name="bottom"/>
  <anchor x="250" y="357" name="center"/>
  <anchor x="250" y="714" name="top"/>
  <anchor x="480" y="714" name="topright"/>
  <outline>
    <contour>
      <point x="123" y="317" type="line"/>
      <point x="385" y="515" type="line"/>
      <point x="369" y="536" type="line"/>
      <point x="108" y="338" type="line"/>
    </contour>
    <contour>
      <point x="123" y="157" type="line"/>
      <point x="385" y="355" type="line"/>
      <point x="369" y="375" type="line"/>
      <point x="108" y="177" type="line"/>
    </contour>
    <component base="T"/>
  </outline>
</glyph>
<glyph name="uni20B5" format="2">
  <advance width="500"/>
  <unicode hex="20B5"/>
  <anchor x="302" y="0" name="bottom"/>
  <anchor x="310" y="714" name="top"/>
  <anchor x="480" y="714" name="topright"/>
  <outline>
    <contour>
      <point x="301" y="-73" type="line"/>
      <point x="327" y="-73" type="line"/>
      <point x="327" y="760" type="line"/>
      <point x="301" y="760" type="line"/>
    </contour>
    <component base="C"/>
  </outline>
</glyph>
<glyph name="accountof" format="2">
  <advance width="500"/>
  <unicode hex="2100"/>
  <anchor x="107" y="398" name="bottom"/>
  <anchor x="111" y="722" name="top"/>
  <outline>
    <contour>
      <point x="430" y="-15" type="curve" smooth="yes"/>
      <point x="459" y="-15"/>
      <point x="482" y="-7"/>
      <point x="497" y="1" type="curve"/>
      <point x="497" y="24" type="line"/>
      <point x="475" y="11"/>
      <point x="451" y="6"/>
      <point x="431" y="6" type="curve" smooth="yes"/>
      <point x="364" y="6"/>
      <point x="329" y="58"/>
      <point x="329" y="150" type="curve" smooth="yes"/>
      <point x="329" y="243"/>
      <point x="368" y="292"/>
      <point x="434" y="292" type="curve" smooth="yes"/>
      <point x="453" y="292"/>
      <point x="468" y="289"/>
      <point x="492" y="278" type="curve"/>
      <point x="500" y="299" type="line"/>
      <point x="480" y="309"/>
      <point x="459" y="314"/>
      <point x="434" y="314" type="curve" smooth="yes"/>
      <point x="354" y="314"/>
      <point x="305" y="254"/>
      <point x="305" y="149" type="curve" smooth="yes"/>
      <point x="305" y="47"/>
      <point x="347" y="-15"/>
    </contour>
    <component base="ordfeminine" xOffset="-135"/>
    <component base="fraction" xOffset="263"/>
  </outline>
</glyph>
<glyph name="afii61248" format="2">
  <advance width="500"/>
  <unicode hex="2105"/>
  <anchor x="373" y="-13" name="bottom"/>
  <anchor x="374" y="311" name="top"/>
  <outline>
    <contour>
      <point x="125" y="395" type="curve" smooth="yes"/>
      <point x="154" y="395"/>
      <point x="177" y="403"/>
      <point x="192" y="411" type="curve"/>
      <point x="192" y="434" type="line"/>
      <point x="170" y="421"/>
      <point x="146" y="416"/>
      <point x="126" y="416" type="curve" smooth="yes"/>
      <point x="59" y="416"/>
      <point x="24" y="468"/>
      <point x="24" y="560" type="curve" smooth="yes"/>
      <point x="24" y="653"/>
      <point x="63" y="702"/>
      <point x="129" y="702" type="curve" smooth="yes"/>
      <point x="148" y="702"/>
      <point x="163" y="699"/>
      <point x="187" y="688" type="curve"/>
      <point x="195" y="709" type="line"/>
      <point x="175" y="719"/>
      <point x="154" y="724"/>
      <point x="129" y="724" type="curve" smooth="yes"/>
      <point x="49" y="724"/>
      <point x="0" y="664"/>
      <point x="0" y="559" type="curve" smooth="yes"/>
      <point x="0" y="457"/>
      <point x="42" y="395"/>
    </contour>
    <component base="fraction" xOffset="249"/>
    <component base="ordmasculine" xOffset="124" yOffset="-411"/>
  </outline>
</glyph>
<glyph name="planckconstantovertwopi" format="2">
  <advance width="500"/>
  <unicode hex="210F"/>
  <outline>
    <contour>
      <point x="70" y="632" type="line"/>
      <point x="302" y="632" type="line"/>
      <point x="307" y="657" type="line"/>
      <point x="73" y="657" type="line"/>
    </contour>
    <component base="planckconstant"/>
  </outline>
</glyph>
<glyph name="versicle" format="2">
  <advance width="500"/>
  <unicode hex="2123"/>
  <anchor x="250" y="0" name="bottom"/>
  <anchor x="250" y="714" name="top"/>
  <anchor x="480" y="714" name="topright"/>
  <outline>
    <contour>
      <point x="55" y="-145" type="line"/>
      <point x="82" y="-145" type="line"/>
      <point x="322" y="788" type="line"/>
      <point x="113" y="838" type="line"/>
      <point x="107" y="814" type="line"/>
      <point x="292" y="770" type="line"/>
    </contour>
    <component base="V"/>
  </outline>
</glyph>
<glyph name="notequal" format="2">
  <advance width="500"/>
  <unicode hex="2260"/>
  <outline>
    <contour>
      <point x="138" y="94" type="line"/>
      <point x="383" y="608" type="line"/>
      <point x="360" y="620" type="line"/>
      <point x="116" y="106" type="line"/>
    </contour>
    <component base="equal"/>
  </outline>
</glyph>
<glyph name="APLomegaunderbar" format="2">
  <advance width="500"/>
  <unicode hex="2379"/>
  <anchor x="250" y="0" name="bottom"/>
  <anchor x="250" y="528" name="top"/>
  <outline>
    <contour>
      <point x="52" y="-126" type="line"/>
      <point x="445" y="-126" type="line"/>
      <point x="445" y="-101" type="line"/>
      <point x="52" y="-101" type="line"/>
    </contour>
    <component base="omega"/>
  </outline>
</glyph>
<glyph name="uni2C66" format="2">
  <advance width="500"/>
  <unicode hex="2C66"/>
  <anchor x="250" y="-188" name="bottom"/>
  <anchor x="250" y="760" name="top"/>
  <anchor x="229" y="290" name="center"/>
  <anchor x="480" y="659" name="topright"/>
  <outline>
    <contour>
      <point x="78" y="-188" type="line"/>
      <point x="105" y="-188" type="line"/>
      <point x="314" y="760" type="line"/>
      <point x="287" y="760" type="line"/>
    </contour>
    <component base="t"/>
  </outline>
</glyph>
<glyph name="uni2C68" format="2">
  <advance width="500"/>
  <unicode hex="2C68"/>
  <anchor x="250" y="-189" name="bottom"/>
  <anchor x="250" y="264" name="center"/>
  <anchor x="96" y="760" name="top"/>
  <anchor x="480" y="760" name="topright"/>
  <outline>
    <contour>
      <point x="445" y="-175" type="line"/>
      <point x="471" y="-175" type="line"/>
      <point x="471" y="25" type="line"/>
      <point x="400" y="25" type="line"/>
      <point x="395" y="0" type="line"/>
      <point x="445" y="0" type="line"/>
    </contour>
    <component base="h"/>
  </outline>
</glyph>
<glyph name="uni2C69" format="2">
  <advance width="500"/>
  <unicode hex="2C69"/>
  <anchor x="250" y="-189" name="bottom"/>
  <anchor x="251" y="714" name="top"/>
  <anchor x="480" y="714" name="topright"/>
  <outline>
    <contour>
      <point x="415" y="-175" type="line"/>
      <point x="438" y="-175" type="line"/>
      <point x="438" y="25" type="line"/>
      <point x="422" y="25" type="line"/>
      <point x="415" y="1" type="line"/>
    </contour>
    <component base="K"/>
  </outline>
</glyph>
<glyph name="uni2C6A" format="2">
  <advance width="500"/>
  <unicode hex="2C6A"/>
  <anchor x="250" y="-189" name="bottom"/>
  <anchor x="280" y="760" name="top"/>
  <anchor x="480" y="760" name="topright"/>
  <outline>
    <contour>
      <point x="432" y="-175" type="line"/>
      <point x="458" y="-175" type="line"/>
      <point x="458" y="25" type="line"/>
      <point x="438" y="25" type="line"/>
      <point x="433" y="2" type="line"/>
    </contour>
    <component base="k"/>
  </outline>
</glyph>
<glyph name="uni2C6C" format="2">
  <advance width="500"/>
  <unicode hex="2C6C"/>
  <anchor x="256" y="-189" name="bottom"/>
  <anchor x="256" y="528" name="top"/>
  <anchor x="480" y="528" name="topright"/>
  <outline>
    <contour>
      <point x="378" y="-175" type="line"/>
      <point x="404" y="-175" type="line"/>
      <point x="404" y="25" type="line"/>
      <point x="384" y="25" type="line"/>
      <point x="378" y="0" type="line"/>
    </contour>
    <component base="z"/>
  </outline>
</glyph>
<glyph name="tildedotabove" format="2">
  <advance width="500"/>
  <unicode hex="2E1E"/>
  <outline>
    <contour>
      <point x="253" y="449" type="curve" smooth="yes"/>
      <point x="271" y="449"/>
      <point x="279" y="462"/>
      <point x="279" y="485" type="curve" smooth="yes"/>
      <point x="279" y="508"/>
      <point x="272" y="520"/>
      <point x="253" y="520" type="curve" smooth="yes"/>
      <point x="233" y="520"/>
      <point x="228" y="504"/>
      <point x="228" y="485" type="curve" smooth="yes"/>
      <point x="228" y="464"/>
      <point x="233" y="449"/>
    </contour>
    <component base="asciitilde"/>
  </outline>
</glyph>
<glyph name="brackhalftopright" format="2">
  <advance width="500"/>
  <unicode hex="2E23"/>
  <outline>
    <contour>
      <point x="158" y="-157" type="line"/>
      <point x="341" y="-157" type="line"/>
      <point x="341" y="277" type="line"/>
      <point x="315" y="277" type="line"/>
      <point x="315" y="-132" type="line"/>
      <point x="158" y="-132" type="line"/>
    </contour>
  </outline>
</glyph>
<glyph name="uni2E4D" format="2">
  <advance width="500"/>
  <unicode hex="2E4D"/>
  <anchor x="250" y="0" name="bottom"/>
  <anchor x="480" y="0" name="bottomright"/>
  <anchor x="250" y="714" name="top"/>
  <outline>
    <contour>
      <point x="115" y="482" type="line"/>
      <point x="329" y="696" type="line"/>
      <point x="316" y="709" type="line"/>
      <point x="103" y="495" type="line"/>
    </contour>
    <component base="afii10020"/>
  </outline>
</glyph>
<glyph name="uniA65C" format="2">
  <advance width="1000"/>
  <unicode hex="A65C"/>
  <outline>
    <contour>
      <point x="371" y="0" type="line"/>
      <point x="928" y="0" type="line"/>
      <point x="928" y="25" type="line"/>
      <point x="371" y="25" type="line"/>
    </contour>
    <component base="uniA656"/>
  </outline>
</glyph>
<glyph name="uniA728" format="2">
  <advance width="1000"/>
  <unicode hex="A728"/>
  <anchor x="327" y="0" name="bottom"/>
  <anchor x="327" y="357" name="center"/>
  <anchor x="327" y="714" name="top"/>
  <anchor x="557" y="714" name="topright"/>
  <outline>
    <contour>
      <point x="618" y="-241" type="curve" smooth="yes"/>
      <point x="751" y="-241"/>
      <point x="841" y="-160"/>
      <point x="841" y="-32" type="curve" smooth="yes"/>
      <point x="841" y="106"/>
      <point x="761" y="166"/>
      <point x="604" y="166" type="curve"/>
      <point x="828" y="462" type="line"/>
      <point x="828" y="483" type="line"/>
      <point x="326" y="483" type="line"/>
      <point x="326" y="458" type="line"/>
      <point x="792" y="458" type="line"/>
      <point x="572" y="166" type="line"/>
      <point x="572" y="141" type="line"/>
      <point x="623" y="141" type="line" smooth="yes"/>
      <point x="748" y="141"/>
      <point x="814" y="85"/>
      <point x="814" y="-32" type="curve" smooth="yes"/>
      <point x="814" y="-148"/>
      <point x="733" y="-216"/>
      <point x="618" y="-216" type="curve" smooth="yes"/>
      <point x="540" y="-216"/>
      <point x="490" y="-198"/>
      <point x="448" y="-175" type="curve"/>
      <point x="448" y="-205" type="line"/>
      <point x="488" y="-225"/>
      <point x="533" y="-241"/>
    </contour>
    <component base="T" xOffset="77"/>
  </outline>
</glyph>
<glyph name="uniA741" format="2">
  <advance width="500"/>
  <unicode hex="A741"/>
  <anchor x="287" y="0" name="bottom"/>
  <anchor x="280" y="760" name="top"/>
  <anchor x="480" y="760" name="topright"/>
  <outline>
    <contour>
      <point x="0" y="630" type="line"/>
      <point x="276" y="630" type="line"/>
      <point x="276" y="655" type="line"/>
      <point x="0" y="655" type="line"/>
    </contour>
    <component base="k"/>
  </outline>
</glyph>
<glyph name="uniA743" format="2">
  <advance width="500"/>
  <unicode hex="A743"/>
  <anchor x="287" y="0" name="bottom"/>
  <anchor x="280" y="760" name="top"/>
  <anchor x="480" y="760" name="topright"/>
  <outline>
    <contour>
      <point x="233" y="63" type="line"/>
      <point x="428" y="263" type="line"/>
      <point x="410" y="279" type="line"/>
      <point x="217" y="79" type="line"/>
    </contour>
    <component base="k"/>
  </outline>
</glyph>
<glyph name="uniA748" format="2">
  <advance width="500"/>
  <unicode hex="A748"/>
  <anchor x="312" y="0" name="bottom"/>
  <anchor x="302" y="357" name="center"/>
  <anchor x="156" y="714" name="top"/>
  <anchor x="415" y="714" name="topright"/>
  <outline>
    <contour>
      <point x="52" y="589" type="line"/>
      <point x="261" y="589" type="line"/>
      <point x="261" y="614" type="line"/>
      <point x="52" y="614" type="line"/>
    </contour>
    <component base="L" xOffset="52"/>
  </outline>
</glyph>
<glyph name="uniA749" format="2">
  <advance width="500"/>
  <unicode hex="A749"/>
  <anchor x="248" y="0" name="bottom"/>
  <anchor x="248" y="376" name="center"/>
  <anchor x="243" y="760" name="top"/>
  <anchor x="389" y="760" name="topright"/>
  <outline>
    <contour>
      <point x="140" y="600" type="line"/>
      <point x="360" y="600" type="line"/>
      <point x="360" y="625" type="line"/>
      <point x="140" y="625" type="line"/>
    </contour>
    <component base="l" xOffset="-7"/>
  </outline>
</glyph>
<glyph name="uniA74B" format="2">
  <advance width="500"/>
  <unicode hex="A74B"/>
  <anchor x="250" y="0" name="bottom"/>
  <anchor x="250" y="264" name="center"/>
  <anchor x="251" y="15" name="ogonek"/>
  <anchor x="250" y="528" name="top"/>
  <anchor x="480" y="528" name="topright"/>
  <outline>
    <contour>
      <point x="0" y="263" type="line"/>
      <point x="500" y="263" type="line"/>
      <point x="500" y="288" type="line"/>
      <point x="0" y="288" type="line"/>
    </contour>
    <component base="o"/>
  </outline>
</glyph>
<glyph name="uniA756" format="2">
  <advance width="500"/>
  <unicode hex="A756"/>
  <anchor x="250" y="-210" name="bottom"/>
  <anchor x="250" y="357" name="center"/>
  <anchor x="251" y="10" name="ogonek"/>
  <anchor x="250" y="714" name="top"/>
  <anchor x="20" y="714" name="topleft"/>
  <anchor x="500" y="714" name="topright"/>
  <outline>
    <contour>
      <point x="249" y="-134" type="line"/>
      <point x="491" y="-38" type="line"/>
      <point x="481" y="-14" type="line"/>
      <point x="240" y="-111" type="line"/>
    </contour>
    <component base="Q"/>
  </outline>
</glyph>
<glyph name="uniA757" format="2">
  <advance width="500"/>
  <unicode hex="A757"/>
  <anchor x="240" y="-232" name="bottom"/>
  <anchor x="240" y="528" name="top"/>
  <anchor x="480" y="528" name="topright"/>
  <outline>
    <contour>
      <point x="223" y="-142" type="line"/>
      <point x="500" y="-142" type="line"/>
      <point x="500" y="-117" type="line"/>
      <point x="223" y="-117" type="line"/>
    </contour>
    <component base="q"/>
  </outline>
</glyph>
<glyph name="uniA75E" format="2">
  <advance width="500"/>
  <unicode hex="A75E"/>
  <anchor x="250" y="0" name="bottom"/>
  <anchor x="250" y="714" name="top"/>
  <anchor x="480" y="714" name="topright"/>
  <outline>
    <contour>
      <point x="71" y="-75" type="line"/>
      <point x="96" y="-75" type="line"/>
      <point x="339" y="760" type="line"/>
      <point x="314" y="760" type="line"/>
    </contour>
    <component base="V"/>
  </outline>
</glyph>
<glyph name="uniA75F" format="2">
  <advance width="500"/>
  <unicode hex="A75F"/>
  <anchor x="250" y="0" name="bottom"/>
  <anchor x="250" y="528" name="top"/>
  <anchor x="480" y="528" name="topright"/>
  <outline>
    <contour>
      <point x="40" y="-93" type="line"/>
      <point x="65" y="-93" type="line"/>
      <point x="283" y="639" type="line"/>
      <point x="256" y="639" type="line"/>
    </contour>
    <component base="v"/>
  </outline>
</glyph>
<glyph name="uniA767" format="2">
  <advance width="500"/>
  <unicode hex="A767"/>
  <anchor x="264" y="-240" name="bottom"/>
  <anchor x="264" y="714" name="top"/>
  <outline>
    <contour>
      <point x="10" y="-142" type="line"/>
      <point x="287" y="-142" type="line"/>
      <point x="287" y="-117" type="line"/>
      <point x="10" y="-117" type="line"/>
    </contour>
    <component base="thorn"/>
  </outline>
</glyph>
<glyph name="uniA77B" format="2">
  <advance width="500"/>
  <unicode hex="A77B"/>
  <outline>
    <contour>
      <point x="85" y="285" type="line"/>
      <point x="449" y="285" type="line"/>
      <point x="449" y="309" type="line"/>
      <point x="85" y="309" type="line"/>
    </contour>
    <component base="uniA784"/>
  </outline>
</glyph>
<glyph name="uniA790" format="2">
  <advance width="500"/>
  <unicode hex="A790"/>
  <anchor x="250" y="0" name="bottom"/>
  <anchor x="255" y="714" name="top"/>
  <anchor x="500" y="714" name="topright"/>
  <outline>
    <contour>
      <point x="411" y="-191" type="line"/>
      <point x="435" y="-191" type="line"/>
      <point x="435" y="28" type="line"/>
      <point x="404" y="28" type="line"/>
      <point x="411" y="0" type="line"/>
    </contour>
    <component base="N"/>
  </outline>
</glyph>
<glyph name="uniA791" format="2">
  <advance width="500"/>
  <unicode hex="A791"/>
  <anchor x="258" y="0" name="bottom"/>
  <anchor x="255" y="528" name="top"/>
  <anchor x="480" y="528" name="topright"/>
  <outline>
    <contour>
      <point x="445" y="-175" type="line"/>
      <point x="471" y="-175" type="line"/>
      <point x="471" y="25" type="line"/>
      <point x="408" y="25" type="line"/>
      <point x="408" y="0" type="line"/>
      <point x="445" y="0" type="line"/>
    </contour>
    <component base="n"/>
  </outline>
</glyph>
<glyph name="uniA792" format="2">
  <advance width="500"/>
  <unicode hex="A792"/>
  <anchor x="302" y="0" name="bottom"/>
  <anchor x="310" y="714" name="top"/>
  <anchor x="480" y="714" name="topright"/>
  <outline>
    <contour>
      <point x="0" y="352" type="line"/>
      <point x="359" y="352" type="line"/>
      <point x="359" y="377" type="line"/>
      <point x="0" y="377" type="line"/>
    </contour>
    <component base="C"/>
  </outline>
</glyph>
<glyph name="uniA793" format="2">
  <advance width="500"/>
  <unicode hex="A793"/>
  <anchor x="322" y="0" name="bottom"/>
  <anchor x="313" y="528" name="top"/>
  <anchor x="505" y="528" name="topright"/>
  <outline>
    <contour>
      <point x="55" y="267" type="line"/>
      <point x="307" y="267" type="line"/>
      <point x="307" y="292" type="line"/>
      <point x="55" y="292" type="line"/>
    </contour>
    <component base="c" xOffset="25"/>
  </outline>
</glyph>
<glyph name="uniA7A8" format="2">
  <advance width="500"/>
  <unicode hex="A7A8"/>
  <anchor x="250" y="0" name="bottom"/>
  <anchor x="257" y="714" name="top"/>
  <anchor x="480" y="714" name="topright"/>
  <outline>
    <contour>
      <point x="0" y="256" type="line"/>
      <point x="500" y="440" type="line"/>
      <point x="500" y="465" type="line"/>
      <point x="0" y="281" type="line"/>
    </contour>
    <component base="S"/>
  </outline>
</glyph>
<glyph name="uniA7AE" format="2">
  <advance width="500"/>
  <unicode hex="A7AE"/>
  <outline>
    <contour>
      <point x="99" y="0" type="line"/>
      <point x="400" y="0" type="line"/>
      <point x="400" y="23" type="line"/>
      <point x="262" y="25" type="line"/>
      <point x="262" y="500" type="line"/>
      <point x="400" y="504" type="line"/>
      <point x="400" y="527" type="line"/>
      <point x="99" y="527" type="line"/>
      <point x="99" y="504" type="line"/>
      <point x="237" y="500" type="line"/>
      <point x="237" y="25" type="line"/>
      <point x="99" y="23" type="line"/>
    </contour>
  </outline>
</glyph>
<glyph name="uniAB3E" format="2">
  <advance width="500"/>
  <unicode hex="AB3E"/>
  <outline>
    <contour>
      <point x="80" y="-58" type="line"/>
      <point x="441" y="495" type="line"/>
      <point x="404" y="520" type="line"/>
      <point x="43" y="-33" type="line"/>
    </contour>
    <component base="uniAB3D"/>
  </outline>
</glyph>
<glyph name="uniAB41" format="2">
  <advance width="500"/>
  <unicode hex="AB41"/>
  <anchor x="248" y="525" name="bottom"/>
  <anchor x="248" y="-3" name="top"/>
  <outline>
    <contour>
      <point x="277" y="-38" type="line"/>
      <point x="432" y="551" type="line"/>
      <point x="407" y="556" type="line"/>
      <point x="252" y="-32" type="line"/>
    </contour>
    <component base="oe" xScale="-1" yScale="-1" xOffset="498" yOffset="525"/>
  </outline>
</glyph>
<glyph name="uniAB42" format="2">
  <advance width="500"/>
  <unicode hex="AB42"/>
  <anchor x="248" y="526" name="bottom"/>
  <anchor x="248" y="-2" name="top"/>
  <outline>
    <contour>
      <point x="238" y="232" type="line"/>
      <point x="463" y="232" type="line"/>
      <point x="463" y="258" type="line"/>
      <point x="238" y="258" type="line"/>
    </contour>
    <component base="oe" xScale="-1" yScale="-1" xOffset="498" yOffset="526"/>
  </outline>
</glyph>
<glyph name="uniAB44" format="2">
  <advance width="500"/>
  <unicode hex="AB44"/>
  <outline>
    <contour>
      <point x="268" y="-101" type="line"/>
      <point x="416" y="593" type="line"/>
      <point x="392" y="598" type="line"/>
      <point x="245" y="-95" type="line"/>
    </contour>
    <component base="uniAB43" xOffset="-11"/>
  </outline>
</glyph>
<glyph name="uniAB4F" format="2">
  <advance width="500"/>
  <unicode hex="AB4F"/>
  <outline>
    <contour>
      <point x="20" y="201" type="line"/>
      <point x="480" y="201" type="line"/>
      <point x="480" y="226" type="line"/>
      <point x="20" y="226" type="line"/>
    </contour>
    <component base="uniAB4E"/>
  </outline>
</glyph>
<glyph name="f_f_i" format="2">
  <advance width="1000"/>
  <unicode hex="FB03"/>
  <anchor x="827" y="0" name="bottom _3"/>
  <anchor x="173" y="0" name="bottom_1"/>
  <anchor x="502" y="0" name="bottom_2"/>
  <anchor x="334" y="0" name="caret_1"/>
  <anchor x="668" y="0" name="caret_2"/>
  <anchor x="173" y="765" name="top_1"/>
  <anchor x="501" y="765" name="top_2"/>
  <anchor x="827" y="765" name="top_3"/>
  <outline>
    <contour>
      <point x="161" y="0" type="line"/>
      <point x="187" y="0" type="line"/>
      <point x="187" y="503" type="line"/>
      <point x="488" y="503" type="line"/>
      <point x="488" y="0" type="line"/>
      <point x="514" y="0" type="line"/>
      <point x="514" y="503" type="line"/>
      <point x="815" y="503" type="line"/>
      <point x="815" y="0" type="line"/>
      <point x="841" y="0" type="line"/>
      <point x="841" y="528" type="line"/>
      <point x="514" y="528" type="line"/>
      <point x="514" y="592" type="line" smooth="yes"/>
      <point x="514" y="703"/>
      <point x="561" y="740"/>
      <point x="660" y="740" type="curve" smooth="yes"/>
      <point x="699" y="740"/>
      <point x="726" y="735"/>
      <point x="754" y="728" type="curve"/>
      <point x="758" y="752" type="line"/>
      <point x="733" y="759"/>
      <point x="695" y="765"/>
      <point x="660" y="765" type="curve" smooth="yes"/>
      <point x="540" y="765"/>
      <point x="488" y="707"/>
      <point x="488" y="603" type="curve" smooth="yes"/>
      <point x="488" y="528" type="line"/>
      <point x="187" y="528" type="line"/>
      <point x="187" y="592" type="line" smooth="yes"/>
      <point x="187" y="703"/>
      <point x="234" y="740"/>
      <point x="333" y="740" type="curve" smooth="yes"/>
      <point x="372" y="740"/>
      <point x="416" y="735"/>
      <point x="444" y="728" type="curve"/>
      <point x="448" y="752" type="line"/>
      <point x="423" y="759"/>
      <point x="368" y="765"/>
      <point x="333" y="765" type="curve" smooth="yes"/>
      <point x="213" y="765"/>
      <point x="161" y="707"/>
      <point x="161" y="603" type="curve" smooth="yes"/>
      <point x="161" y="528" type="line"/>
      <point x="22" y="524" type="line"/>
      <point x="22" y="503" type="line"/>
      <point x="161" y="503" type="line"/>
    </contour>
    <contour>
      <point x="828" y="660" type="curve" smooth="yes"/>
      <point x="854" y="660"/>
      <point x="858" y="679"/>
      <point x="858" y="697" type="curve" smooth="yes"/>
      <point x="858" y="716"/>
      <point x="852" y="734"/>
      <point x="828" y="734" type="curve" smooth="yes"/>
      <point x="802" y="734"/>
      <point x="796" y="716"/>
      <point x="796" y="697" type="curve" smooth="yes"/>
      <point x="796" y="677"/>
      <point x="803" y="660"/>
    </contour>
  </outline>
</glyph>
<glyph name="f_f_l" format="2">
  <advance width="1000"/>
  <unicode hex="FB04"/>
  <anchor x="827" y="0" name="bottom _3"/>
  <anchor x="173" y="0" name="bottom_1"/>
  <anchor x="502" y="0" name="bottom_2"/>
  <anchor x="334" y="0" name="caret_1"/>
  <anchor x="668" y="0" name="caret_2"/>
  <anchor x="173" y="765" name="top_1"/>
  <anchor x="501" y="765" name="top_2"/>
  <anchor x="827" y="765" name="top_3"/>
  <outline>
    <contour>
      <point x="161" y="0" type="line"/>
      <point x="187" y="0" type="line"/>
      <point x="187" y="503" type="line"/>
      <point x="488" y="503" type="line"/>
      <point x="488" y="0" type="line"/>
      <point x="514" y="0" type="line"/>
      <point x="514" y="503" type="line"/>
      <point x="744" y="503" type="line"/>
      <point x="744" y="528" type="line"/>
      <point x="514" y="528" type="line"/>
      <point x="514" y="592" type="line" smooth="yes"/>
      <point x="514" y="703"/>
      <point x="561" y="740"/>
      <point x="660" y="740" type="curve" smooth="yes"/>
      <point x="695" y="740"/>
      <point x="733" y="735"/>
      <point x="761" y="728" type="curve"/>
      <point x="765" y="752" type="line"/>
      <point x="740" y="759"/>
      <point x="692" y="765"/>
      <point x="660" y="765" type="curve" smooth="yes"/>
      <point x="540" y="765"/>
      <point x="488" y="707"/>
      <point x="488" y="603" type="curve" smooth="yes"/>
      <point x="488" y="528" type="line"/>
      <point x="187" y="528" type="line"/>
      <point x="187" y="592" type="line" smooth="yes"/>
      <point x="187" y="703"/>
      <point x="234" y="740"/>
      <point x="333" y="740" type="curve" smooth="yes"/>
      <point x="372" y="740"/>
      <point x="416" y="735"/>
      <point x="444" y="728" type="curve"/>
      <point x="448" y="752" type="line"/>
      <point x="423" y="759"/>
      <point x="368" y="765"/>
      <point x="333" y="765" type="curve" smooth="yes"/>
      <point x="213" y="765"/>
      <point x="161" y="707"/>
      <point x="161" y="603" type="curve" smooth="yes"/>
      <point x="161" y="528" type="line"/>
      <point x="22" y="524" type="line"/>
      <point x="22" y="503" type="line"/>
      <point x="161" y="503" type="line"/>
    </contour>
    <contour>
      <point x="815" y="0" type="line"/>
      <point x="841" y="0" type="line"/>
      <point x="841" y="760" type="line"/>
      <point x="815" y="760" type="line"/>
    </contour>
  </outline>
</glyph>
<glyph name="longs_t" format="2">
  <advance width="500"/>
  <unicode hex="FB05"/>
  <anchor x="103" y="0" name="bottom"/>
  <anchor x="98" y="0" name="bottom_1"/>
  <anchor x="308" y="0" name="bottom_2"/>
  <anchor x="211" y="0" name="caret_1"/>
  <anchor x="310" y="290" name="center"/>
  <anchor x="204" y="765" name="top"/>
  <anchor x="98" y="765" name="top_1"/>
  <anchor x="308" y="765" name="top_2"/>
  <anchor x="501" y="659" name="topright"/>
  <outline>
    <contour>
      <point x="396" y="-10" type="curve" smooth="yes"/>
      <point x="423" y="-10"/>
      <point x="451" y="-4"/>
      <point x="468" y="3" type="curve"/>
      <point x="468" y="28" type="line"/>
      <point x="447" y="20"/>
      <point x="419" y="15"/>
      <point x="397" y="15" type="curve" smooth="yes"/>
      <point x="333" y="15"/>
      <point x="322" y="57"/>
      <point x="322" y="142" type="curve" smooth="yes"/>
      <point x="322" y="503" type="line"/>
      <point x="468" y="503" type="line"/>
      <point x="468" y="528" type="line"/>
      <point x="322" y="528" type="line"/>
      <point x="322" y="653" type="line"/>
      <point x="313" y="712"/>
      <point x="283" y="765"/>
      <point x="207" y="765" type="curve" smooth="yes"/>
      <point x="125" y="765"/>
      <point x="85" y="702"/>
      <point x="85" y="588" type="curve" smooth="yes"/>
      <point x="85" y="0" type="line"/>
      <point x="111" y="0" type="line"/>
      <point x="111" y="582" type="line" smooth="yes"/>
      <point x="111" y="683"/>
      <point x="135" y="740"/>
      <point x="207" y="740" type="curve" smooth="yes"/>
      <point x="265" y="740"/>
      <point x="288" y="702"/>
      <point x="295" y="653" type="curve"/>
      <point x="295" y="528" type="line"/>
      <point x="196" y="524" type="line"/>
      <point x="196" y="503" type="line"/>
      <point x="296" y="503" type="line"/>
      <point x="296" y="139" type="line" smooth="yes"/>
      <point x="296" y="42"/>
      <point x="316" y="-10"/>
    </contour>
  </outline>
</glyph>
<glyph name="s_t" format="2">
  <advance width="1000"/>
  <unicode hex="FB06"/>
  <anchor x="258" y="0" name="bottom"/>
  <anchor x="251" y="0" name="bottom_1"/>
  <anchor x="729" y="0" name="bottom_2"/>
  <anchor x="540" y="0" name="caret_1"/>
  <anchor x="729" y="290" name="center"/>
  <anchor x="258" y="528" name="top"/>
  <anchor x="251" y="528" name="top_1"/>
  <anchor x="729" y="765" name="top_2"/>
  <anchor x="980" y="659" name="topright"/>
  <outline>
    <contour>
      <point x="851" y="-10" type="curve" smooth="yes"/>
      <point x="886" y="-10"/>
      <point x="908" y="-4"/>
      <point x="930" y="3" type="curve"/>
      <point x="930" y="28" type="line"/>
      <point x="908" y="20"/>
      <point x="884" y="15"/>
      <point x="851" y="15" type="curve" smooth="yes"/>
      <point x="765" y="15"/>
      <point x="741" y="75"/>
      <point x="741" y="183" type="curve" smooth="yes"/>
      <point x="741" y="503" type="line"/>
      <point x="918" y="503" type="line"/>
      <point x="918" y="528" type="line"/>
      <point x="741" y="528" type="line"/>
      <point x="741" y="681" type="line"/>
      <point x="699" y="728"/>
      <point x="615" y="765"/>
      <point x="518" y="765" type="curve" smooth="yes"/>
      <point x="378" y="765"/>
      <point x="327" y="689"/>
      <point x="327" y="615" type="curve" smooth="yes"/>
      <point x="327" y="582"/>
      <point x="337" y="548"/>
      <point x="366" y="509" type="curve"/>
      <point x="396" y="509" type="line"/>
      <point x="367" y="547"/>
      <point x="353" y="578"/>
      <point x="353" y="615" type="curve" smooth="yes"/>
      <point x="353" y="680"/>
      <point x="396" y="740"/>
      <point x="523" y="740" type="curve" smooth="yes"/>
      <point x="601" y="740"/>
      <point x="677" y="711"/>
      <point x="714" y="672" type="curve"/>
      <point x="714" y="528" type="line"/>
      <point x="584" y="524" type="line"/>
      <point x="584" y="503" type="line"/>
      <point x="715" y="503" type="line"/>
      <point x="715" y="180" type="line" smooth="yes"/>
      <point x="715" y="62"/>
      <point x="746" y="-10"/>
    </contour>
    <contour>
      <point x="244" y="-10" type="curve" smooth="yes"/>
      <point x="351" y="-10"/>
      <point x="404" y="44"/>
      <point x="404" y="129" type="curve" smooth="yes"/>
      <point x="404" y="223"/>
      <point x="336" y="247"/>
      <point x="262" y="283" type="curve" smooth="yes"/>
      <point x="192" y="317"/>
      <point x="143" y="337"/>
      <point x="143" y="407" type="curve" smooth="yes"/>
      <point x="143" y="477"/>
      <point x="195" y="512"/>
      <point x="270" y="512" type="curve" smooth="yes"/>
      <point x="311" y="512"/>
      <point x="354" y="502"/>
      <point x="384" y="485" type="curve"/>
      <point x="396" y="509" type="line"/>
      <point x="362" y="526"/>
      <point x="319" y="537"/>
      <point x="271" y="537" type="curve" smooth="yes"/>
      <point x="171" y="537"/>
      <point x="117" y="484"/>
      <point x="117" y="408" type="curve" smooth="yes"/>
      <point x="117" y="320"/>
      <point x="177" y="294"/>
      <point x="255" y="258" type="curve" smooth="yes"/>
      <point x="324" y="226"/>
      <point x="377" y="204"/>
      <point x="377" y="130" type="curve" smooth="yes"/>
      <point x="377" y="58"/>
      <point x="337" y="16"/>
      <point x="244" y="16" type="curve" smooth="yes"/>
      <point x="194" y="16"/>
      <point x="148" y="30"/>
      <point x="107" y="53" type="curve"/>
      <point x="107" y="23" type="line"/>
      <point x="137" y="7"/>
      <point x="185" y="-10"/>
    </contour>
  </outline>
</glyph>
<glyph name="eth.sc" format="2">
  <advance width="500"/>
  <anchor x="250" y="0" name="bottom"/>
  <anchor x="250" y="559" name="top"/>
  <anchor x="230" y="280" name="center"/>
  <anchor x="480" y="559" name="topright"/>
  <outline>
    <contour>
      <point x="0" y="281" type="line"/>
      <point x="186" y="281" type="line"/>
      <point x="186" y="306" type="line"/>
      <point x="0" y="306" type="line"/>
    </contour>
    <component base="d.sc"/>
  </outline>
</glyph>
<glyph name="l.sc" format="2">
  <advance width="500"/>
  <anchor x="289" y="0" name="bottom"/>
  <anchor x="152" y="280" name="center"/>
  <anchor x="151" y="559" name="top"/>
  <anchor x="412" y="559" name="topright"/>
  <outline>
    <contour>
      <point x="138" y="0" type="line"/>
      <point x="419" y="0" type="line"/>
      <point x="419" y="25" type="line"/>
      <point x="164" y="25" type="line"/>
      <point x="164" y="559" type="line"/>
      <point x="138" y="559" type="line"/>
    </contour>
  </outline>
</glyph>
<glyph name="lslash.sc" format="2">
  <advance width="500"/>
  <anchor x="319" y="0" name="bottom"/>
  <anchor x="181" y="559" name="top"/>
  <anchor x="182" y="280" name="center"/>
  <anchor x="442" y="559" name="topright"/>
  <outline>
    <contour>
      <point x="98" y="191" type="line"/>
      <point x="295" y="367" type="line"/>
      <point x="280" y="385" type="line"/>
      <point x="82" y="209" type="line"/>
    </contour>
    <component base="l.sc" xOffset="30"/>
  </outline>
</glyph>
<glyph name="oslash.sc" format="2">
  <advance width="500"/>
  <anchor x="250" y="-54" name="bottom"/>
  <anchor x="250" y="584" name="top"/>
  <anchor x="249" y="280" name="center"/>
  <anchor x="247" y="10" name="ogonek"/>
  <anchor x="249" y="589" name="topleft"/>
  <anchor x="249" y="559" name="topright"/>
  <outline>
    <contour>
      <point x="42" y="-54" type="line"/>
      <point x="456" y="571" type="line"/>
      <point x="436" y="584" type="line"/>
      <point x="22" y="-40" type="line"/>
    </contour>
    <component base="o.sc" xOffset="-1"/>
  </outline>
</glyph>
<glyph name="tbar.sc" format="2">
  <advance width="500"/>
  <anchor x="250" y="0" name="bottom"/>
  <anchor x="250" y="559" name="top"/>
  <anchor x="250" y="280" name="center"/>
  <anchor x="480" y="559" name="topright"/>
  <outline>
    <contour>
      <point x="139" y="292" type="line"/>
      <point x="362" y="292" type="line"/>
      <point x="362" y="317" type="line"/>
      <point x="139" y="317" type="line"/>
    </contour>
    <component base="t.sc"/>
  </outline>
</glyph>
